<svg width="13" height="7" viewBox="0 0 13 7" fill="none" xmlns="http://www.w3.org/2000/svg">
<mask id="path-1-inside-1_1_1166" fill="white">
<path fill-rule="evenodd" clip-rule="evenodd" d="M12.4741 0.225045L6.23703 6.94191L-6.19888e-05 0.225045"/>
</mask>
<path fill-rule="evenodd" clip-rule="evenodd" d="M12.4741 0.225045L6.23703 6.94191L-6.19888e-05 0.225045" fill="#77757F"/>
<path d="M13.1773 0.877974L13.8302 0.174819L12.4239 -1.13104L11.771 -0.427884L13.1773 0.877974ZM6.23703 6.94191L5.53388 7.59484L6.23703 8.35209L6.94019 7.59484L6.23703 6.94191ZM0.703093 -0.427884L0.0501642 -1.13104L-1.35614 0.174819L-0.703216 0.877974L0.703093 -0.427884ZM11.771 -0.427884L5.53388 6.28899L6.94019 7.59484L13.1773 0.877974L11.771 -0.427884ZM6.94019 6.28899L0.703093 -0.427884L-0.703216 0.877974L5.53388 7.59484L6.94019 6.28899Z" fill="#77757F" mask="url(#path-1-inside-1_1_1166)"/>
</svg>
