<svg width="8" height="13" viewBox="0 0 8 13" fill="none" xmlns="http://www.w3.org/2000/svg">
<mask id="path-1-inside-1_1_913" fill="white">
<path fill-rule="evenodd" clip-rule="evenodd" d="M0.878365 0.0195268L7.59523 6.25662L0.878365 12.4937"/>
</mask>
<path fill-rule="evenodd" clip-rule="evenodd" d="M0.878365 0.0195268L7.59523 6.25662L0.878365 12.4937" fill="#77757F"/>
<path d="M1.53129 -0.683627L0.82814 -1.33656L-0.477717 0.069752L0.225436 0.722681L1.53129 -0.683627ZM7.59523 6.25662L8.24816 6.95977L9.00541 6.25662L8.24816 5.55347L7.59523 6.25662ZM0.225436 11.7906L-0.477717 12.4435L0.82814 13.8498L1.53129 13.1969L0.225436 11.7906ZM0.225436 0.722681L6.94231 6.95977L8.24816 5.55347L1.53129 -0.683627L0.225436 0.722681ZM6.94231 5.55347L0.225436 11.7906L1.53129 13.1969L8.24816 6.95977L6.94231 5.55347Z" fill="#77757F" mask="url(#path-1-inside-1_1_913)"/>
</svg>
