<svg width="28" height="23" viewBox="0 0 28 23" fill="none" xmlns="http://www.w3.org/2000/svg">
<path d="M17.1007 4.03763H23.7873C24.254 4.03759 24.7156 4.1348 25.1426 4.32309C25.5696 4.51137 25.9527 4.78658 26.2674 5.13118C26.5822 5.47577 26.8216 5.88217 26.9705 6.32446C27.1194 6.76676 27.1745 7.23523 27.1323 7.70001L26.0626 19.4545C25.9868 20.289 25.6018 21.0649 24.9832 21.63C24.3647 22.1952 23.5572 22.5087 22.7193 22.509H5.3411C4.50324 22.5087 3.69575 22.1952 3.07718 21.63C2.4586 21.0649 2.07361 20.289 1.99778 19.4545L0.928119 7.70001C0.856561 6.92216 1.05976 6.14383 1.50241 5.50023L1.43692 4.03763C1.43692 3.14692 1.79076 2.29269 2.42058 1.66286C3.05041 1.03303 3.90464 0.679199 4.79536 0.679199H10.9614C11.8521 0.679389 12.7062 1.03335 13.3359 1.66322L14.7262 3.05361C15.3559 3.68349 16.21 4.03744 17.1007 4.03763ZM3.12621 4.23914C3.48557 4.10816 3.87179 4.03763 4.2748 4.03763H13.3359L12.1487 2.85043C11.8338 2.53549 11.4068 2.35851 10.9614 2.35842H4.79536C4.35547 2.35834 3.93312 2.53087 3.61911 2.83891C3.3051 3.14696 3.1245 3.56593 3.11614 4.00573L3.12621 4.23914Z" fill="#5352ED"/>
</svg>
