<svg width="58" height="48" viewBox="0 0 58 58" fill="none" xmlns="http://www.w3.org/2000/svg">
<path d="M57.7976 24.7552C57.5642 23.7223 56.9196 22.7678 56.1842 22.3671C55.9507 22.2369 54.5046 22.084 52.9552 22.0179C50.3604 21.9022 50.0753 21.8506 49.249 21.3713C47.9454 20.609 47.5962 19.7826 47.5839 17.5618C47.5715 13.2998 45.801 9.33746 42.3034 5.77379C39.812 3.23068 37.023 1.51185 33.8456 0.545012C33.0833 0.311566 31.379 0.235127 25.673 0.171085C16.7111 0.0677899 14.7237 0.247523 11.6765 1.46227C6.05935 3.68311 2.03086 8.40987 0.559942 14.4506C0.28931 15.5868 0.223201 17.4068 0.159158 27.8665C0.08272 40.9725 0.171554 42.8959 0.985516 45.4906C2.99976 51.8949 8.72023 56.6341 14.4655 57.667C16.3764 58.0162 39.94 58.0926 42.3551 57.7703C46.5509 57.2022 49.8439 55.5102 52.9304 52.3597C55.1636 50.0749 56.5581 47.6082 57.4754 44.342C58.1075 42.0695 58.0559 25.9039 57.7976 24.7552ZM16.207 16.5433C17.2152 15.5228 17.4982 15.4835 23.7992 15.4835C29.468 15.4835 29.6601 15.4959 30.4886 15.9235C31.6889 16.5309 32.2177 17.3821 32.2177 18.7517C32.2177 19.9789 31.726 20.8424 30.629 21.5407C30.0361 21.9146 29.687 21.9415 24.1339 21.9663C20.7128 21.9911 17.9754 21.9146 17.5747 21.8113C15.4303 21.204 14.6308 18.132 16.205 16.5433H16.207ZM40.973 42.3401L39.0496 42.65L29.0424 42.7657C20.25 42.869 17.7709 42.7141 17.3061 42.5075C16.3888 42.1067 15.5232 40.9973 15.3827 40.0036C15.2402 39.0616 15.7174 37.7704 16.4405 37.1114C17.3577 36.285 17.7565 36.2602 29.0032 36.2458C40.5722 36.2334 40.5082 36.2334 41.6052 37.2539C43.167 38.7124 42.8323 41.2824 40.973 42.3401Z" fill="#5352ED"/>
</svg>
